<svg xmlns="http://www.w3.org/2000/svg" viewBox="0 0 24 24">
  <g fill="none" stroke="currentColor" stroke-width="1.5" stroke-linecap="round" stroke-linejoin="round">
    <path d="M15.5 9s.172.172.172.172c1.333 1.333 2 2 2 3s-.667 1.667-2 3l-.172.172"/>
    <path d="m13.294 7.17-1.294 4.83-1.294 4.83"/>
    <path d="M8.5 9S8.328 9.172 8.328 9.172c-1.333 1.333-2 2-2 3s.667 1.667 2 3l.172.172"/>
    <path d="M22 12c0 4.714 0 7.071-1.465 8.535C19.072 22 16.714 22 12 22s-7.071 0-8.536-1.465C2 19.072 2 16.714 2 12s0-7.071 1.464-8.536C4.93 2 7.286 2 12 2c4.714 0 7.071 0 8.535 1.464.954.994 1.28 2.362 1.39 5"/>
  </g>
</svg>